# xmcd
#
# Track frame offsets: 
#        150
#        15522
#        37077
#        60271
#        81348
#        97070
#        111983
#        124693
#        143993
#        156848
#
# Disc length: 2920 seconds
#
# Revision: 2
# Processed by: cddbd v1.5.2PL0 Copyright (c) Steve Scherf et al.
# Submitted via: ExactAudioCopy v0.95b3
#
DISCID=830b660a
DTITLE=Lynyrd Skynyrd - Playlist Plus (2)
DYEAR=2008
DGENRE=Rock
TTITLE0=Don't Ask Me No Questions
TTITLE1=Workin' For MCA
TTITLE2=Saturday Night Special
TTITLE3=Made In The Shade
TTITLE4=Gimme Back My Bullets
TTITLE5=Searchin'
TTITLE6=Double Trouble
TTITLE7=All I Can Do Is Write About It
TTITLE8=Roll Gypsy Roll
TTITLE9=Free Bird LIVE
EXTD=
EXTT0=
EXTT1=
EXTT2=
EXTT3=
EXTT4=
EXTT5=
EXTT6=
EXTT7=
EXTT8=
EXTT9=
PLAYORDER=
